<svg width="205" height="210" xmlns="http://www.w3.org/2000/svg" xmlns:xlink="http://www.w3.org/1999/xlink" xml:space="preserve" overflow="hidden"><defs><clipPath id="clip0"><rect x="2732" y="839" width="205" height="210"/></clipPath></defs><g clip-path="url(#clip0)" transform="translate(-2732 -839)"><path d="M2732 884.5C2732 859.371 2752.37 839 2777.5 839 2802.63 839 2823 859.371 2823 884.5 2823 909.629 2802.63 930 2777.5 930 2752.37 930 2732 909.629 2732 884.5Z" fill="#6DBE45" fill-rule="evenodd"/><path d="M2846 884.5C2846 859.371 2866.37 839 2891.5 839 2916.63 839 2937 859.371 2937 884.5 2937 909.629 2916.63 930 2891.5 930 2866.37 930 2846 909.629 2846 884.5Z" fill="#4A90E2" fill-rule="evenodd"/><path d="M2732 1000.5C2732 975.371 2752.37 955 2777.5 955 2802.63 955 2823 975.371 2823 1000.5 2823 1025.63 2802.63 1046 2777.5 1046 2752.37 1046 2732 1025.63 2732 1000.5Z" fill="#FFD66B" fill-rule="evenodd"/><path d="M2891.5 1049C2866.37 1049 2846 1028.63 2846 1003.5 2846 988.333 2846 973.167 2846 958 2861.17 958 2876.33 958 2891.5 958 2916.63 958 2937 978.371 2937 1003.5 2937 1028.63 2916.63 1049 2891.5 1049Z" fill="#A9B0B3" fill-rule="evenodd"/></g></svg>